<svg width="46" height="37" viewBox="0 0 46 37" fill="none" xmlns="http://www.w3.org/2000/svg">
<path d="M0.666992 23.3487C0.666992 16.943 2.19488 11.8825 5.25065 8.16724C8.34947 4.45193 12.8471 2.01777 18.7434 0.864746V7.52667C14.3534 8.89322 11.4052 11.242 9.89888 14.5729C9.12417 16.3238 8.80138 18.1388 8.9305 20.0178L19.0662 20.0178L19.0662 36.8647H0.666992L0.666992 23.3487Z" fill="white"/>
<path d="M27.2678 23.3487C27.2678 16.943 28.7957 11.8825 31.8514 8.16724C34.9503 4.45193 39.4478 2.01777 45.3442 0.864746V7.52667C40.9542 8.89322 38.006 11.242 36.4997 14.5729C35.725 16.3238 35.4022 18.1388 35.5313 20.0178H45.667L45.667 36.8647H27.2678L27.2678 23.3487Z" fill="white"/>
</svg>
